<svg width="1920" height="1080" viewBox="0 0 1920 1080" fill="none" xmlns="http://www.w3.org/2000/svg">
<g clip-path="url(#clip0_50_4)">
<rect width="1920" height="1080" fill="url(#paint0_linear_50_4)" fill-opacity="0.5"/>
<path fill-rule="evenodd" clip-rule="evenodd" d="M1486 126C1616.08 126 1727.26 85.55 1771.98 28.4349C1783.65 99.6555 1845.48 154 1920 154C2002.84 154 2070 86.8427 2070 4C2070 -78.8427 2002.84 -146 1920 -146C1860.82 -146 1809.64 -111.729 1785.24 -61.9498C1753.97 -130.138 1631.86 -181 1486 -181C1361.78 -181 1254.78 -144.109 1206.46 -91.0423C1150.5 -128.643 1060.94 -153 960 -153C871.256 -153 791.306 -134.173 735.257 -104.071C679.12 -133.829 591.037 -153 492 -153C385.58 -153 291.806 -130.864 236.729 -97.2416C180.419 -131.298 95.2782 -153 0 -153C-169.551 -153 -307 -84.2757 -307 0.5C-307 85.2757 -169.551 154 0 154C124.771 154 232.157 116.784 280.178 63.3414C335.269 84.8155 409.868 98 492 98C565.571 98 633.098 87.4207 685.974 69.7804C734.374 117.546 831.262 150.949 944.263 153.802C983.691 177.464 1073.73 194 1178.5 194C1319.61 194 1434 164.003 1434 127C1434 125.921 1433.9 124.849 1433.71 123.782C1450.7 125.24 1468.17 126 1486 126Z" fill="#A1FF8A" fill-opacity="0.51"/>
</g>
<defs>
<linearGradient id="paint0_linear_50_4" x1="960" y1="0" x2="960" y2="1080" gradientUnits="userSpaceOnUse">
<stop offset="0.403096" stop-color="#C7FEC5"/>
<stop offset="1" stop-color="#52FCC9" stop-opacity="0.3"/>
</linearGradient>
<clipPath id="clip0_50_4">
<rect width="1920" height="1080" fill="white"/>
</clipPath>
</defs>
</svg>
